<?xml version="1.0" encoding="UTF-8"?>
<svg version="1.1" xmlns="http://www.w3.org/2000/svg" width="120" height="120">
<path d="M0 0 C-0.99 1.32 -1.98 2.64 -3 4 C-2.236875 3.649375 -1.47375 3.29875 -0.6875 2.9375 C2 2 2 2 5 3 C3.83333333 4.02083333 2.66666667 5.04166667 1.5 6.0625 C0.76910156 6.70703125 0.03820313 7.3515625 -0.71484375 8.015625 C-2.14533208 9.25782683 -3.59354411 10.48022095 -5.06640625 11.671875 C-14.99768164 19.8345671 -20.89470641 30.30865469 -23 43 C-24.01708607 55.55710104 -20.67717763 67.72775583 -12.88671875 77.70703125 C-4.756666 87.03951197 4.05807267 92.19473486 16.5078125 93.203125 C30.89377107 93.46078396 43.247434 88.39059706 53.671875 78.5234375 C62.96455905 68.45116587 67.37917393 56.56773119 67.21484375 42.96484375 C66.23132744 29.39231863 59.66608238 18.25908944 50 9 C48.05234977 7.52932534 46.08020606 6.28012681 44 5 C44 4.34 44 3.68 44 3 C43.360625 2.71125 42.72125 2.4225 42.0625 2.125 C40 1 40 1 39 -1 C48.69820186 0.03389239 57.77388548 6.84734806 64.2890625 13.87109375 C74.64859813 26.76138352 77.06460102 40.8630907 76 57 C73.75601695 71.50637861 65.79606134 83.17273009 54.125 91.875 C41.81020389 100.02082457 27.24379494 101.65226376 12.86328125 99.5390625 C-1.84304165 95.88931813 -15.02196414 87.19122764 -24 75 C-31.79476757 62.05480951 -33.83154064 48.69038049 -31.5 33.80859375 C-27.98956792 19.78681107 -20.19240126 8.80630402 -7.9453125 1.05859375 C-4.75561343 -0.67716618 -3.52716765 -1.17572255 0 0 Z M-7 5 C-7.33 5.66 -7.66 6.32 -8 7 C-7.01 6.67 -6.02 6.34 -5 6 C-5.66 5.67 -6.32 5.34 -7 5 Z M-14.25 10.875 C-23.50338258 20.36641171 -29.16259993 32.1144239 -29.125 45.5 C-29.12757812 46.4178125 -29.13015625 47.335625 -29.1328125 48.28125 C-29.00244035 50.95004454 -28.59378606 53.39865153 -28 56 C-27.67 56 -27.34 56 -27 56 C-26.96261719 54.97261719 -26.92523438 53.94523437 -26.88671875 52.88671875 C-26.15452739 36.26758407 -22.64830674 23.33398984 -10.890625 11.03125 C-8.95292287 9.14087073 -8.95292287 9.14087073 -8 7 C-11.06618757 7 -12.10104471 8.76259157 -14.25 10.875 Z M70 34 C71 37 71 37 71 37 Z M71 38 C70.96261719 39.02738281 70.92523438 40.05476563 70.88671875 41.11328125 C70.15452739 57.73241593 66.64830674 70.66601016 54.890625 82.96875 C52.95292287 84.85912927 52.95292287 84.85912927 52 87 C60.83910016 82.98573617 66.43783139 74.29077196 70.00390625 65.53515625 C71.9555117 59.86890081 73.14190475 54.51809113 73.125 48.5 C73.12757812 47.5821875 73.13015625 46.664375 73.1328125 45.71875 C73.00244035 43.04995546 72.59378606 40.60134847 72 38 C71.67 38 71.34 38 71 38 Z M-27 57 C-26 60 -26 60 -26 60 Z M50 87 C49.67 87.66 49.34 88.32 49 89 C49.99 88.67 50.98 88.34 52 88 C51.34 87.67 50.68 87.34 50 87 Z M47 89 C46.67 89.66 46.34 90.32 46 91 C46.99 90.67 47.98 90.34 49 90 C48.34 89.67 47.68 89.34 47 89 Z " fill="#082EF3" transform="translate(37,9)"/>
<path d="M0 0 C2.53724145 1.99240223 4.24492581 4.31272247 6 7 C6.99 8.485 6.99 8.485 8 10 C8.49769529 12.38893739 8.79068807 14.58177914 9 17 C9.11214844 17.77214844 9.22429687 18.54429688 9.33984375 19.33984375 C10.10295114 28.24276331 6.07885809 34.72241321 1.91503906 42.26464844 C0.7646221 44.44638904 -0.15118222 46.68585469 -1 49 C5.0792308 56.70105546 5.0792308 56.70105546 14 60 C14 61.32 14 62.64 14 64 C10.12223829 64.40938247 8.46016439 64.3266519 5.2265625 62.03125 C4.36804688 61.1959375 3.50953125 60.360625 2.625 59.5 C1.31402344 58.24703125 1.31402344 58.24703125 -0.0234375 56.96875 C-1.00183594 55.99421875 -1.00183594 55.99421875 -2 55 C-2 57.26580566 0.63295339 59.40511228 2 61 C4.88944579 63.609822 7.15151661 64.46548842 11 65 C11 66.32 11 67.64 11 69 C7.17642246 69.39631242 5.49843491 69.3612376 2.33203125 67.06640625 C1.50058594 66.24011719 0.66914062 65.41382812 -0.1875 64.5625 C-4.29261054 60.5330597 -6.06563673 59 -12 59 C-11.71125 58.030625 -11.4225 57.06125 -11.125 56.0625 C-10.6020935 52.42394229 -11.49671627 50.81224871 -13.625 47.875 C-20.77133896 37.99034424 -23.91158794 27.16954576 -22 15 C-18.24621956 5.35452444 -10.94336353 -2.29902595 0 0 Z M-6 3 C-6.66 3.66 -7.32 4.32 -8 5 C-6.35 5 -4.7 5 -3 5 C-3.33 4.34 -3.66 3.68 -4 3 C-4.66 3 -5.32 3 -6 3 Z M-3 5 C-1.68 6.32 -0.36 7.64 1 9 C0.34 7.68 -0.32 6.36 -1 5 C-1.66 5 -2.32 5 -3 5 Z M-15 12 C-17.22301918 17.83542536 -15.55260338 24.45756092 -13.11572266 30.01757812 C-10.87797146 34.74888391 -8.46324034 39.38285648 -6 44 C-5.34 44 -4.68 44 -4 44 C1.4045364 35.97362004 3.04485176 29.64173331 2 20 C1.70255751 18.65820387 1.3847011 17.3194294 1 16 C0.34 16 -0.32 16 -1 16 C-1.2475 15.236875 -1.495 14.47375 -1.75 13.6875 C-3.12130672 10.73919055 -4.2351079 9.64165468 -7 8 C-10.46558956 8 -12.38295349 9.88409006 -15 12 Z M2 11 C2.99 12.485 2.99 12.485 4 14 C4 13.01 4 12.02 4 11 C3.34 11 2.68 11 2 11 Z M-18 28 C-17 30 -17 30 -17 30 Z M-17 31 C-16 33 -16 33 -16 33 Z M-16 34 C-15 36 -15 36 -15 36 Z M-15 36 C-14 38 -14 38 -14 38 Z M-14 38 C-13 40 -13 40 -13 40 Z M-13 40 C-12 42 -12 42 -12 42 Z M-12 42 C-11.67 42.99 -11.34 43.98 -11 45 C-11 44.01 -11 43.02 -11 42 C-11.33 42 -11.66 42 -12 42 Z M-10 45 C-9.67 46.32 -9.34 47.64 -9 49 C-8.34 49 -7.68 49 -7 49 C-7.66 47.68 -8.32 46.36 -9 45 C-9.33 45 -9.66 45 -10 45 Z " fill="#D68A83" transform="translate(62,19)"/>
<path d="M0 0 C9.85823026 5.07848226 16.26468498 14.511839 19.8125 24.8125 C24.19183644 38.95908378 22.87011085 53.66166399 16.875 67.0625 C10.32734951 79.37599198 -0.39420934 87.83555118 -13.45703125 92.2734375 C-24.67958592 95.47988169 -38.10591782 95.4143307 -49 91 C-49.99 90.34 -50.98 89.68 -52 89 C-50.70835938 89.15984375 -49.41671875 89.3196875 -48.0859375 89.484375 C-36.45562714 90.76702949 -24.01856639 91.41815892 -13 87 C-12.1646875 86.67128906 -11.329375 86.34257813 -10.46875 86.00390625 C1.29198093 80.75876545 10.0915173 71.31689971 15.05859375 59.4765625 C20.34087073 44.26158286 17.9947983 29.94465485 11.125 15.5 C8.44887597 10.46698501 5.27474023 4.63737012 0 2 C0 1.34 0 0.68 0 0 Z " fill="#08A639" transform="translate(91,15)"/>
<path d="M0 0 C-1.16666667 1.02083333 -2.33333333 2.04166667 -3.5 3.0625 C-4.23089844 3.70703125 -4.96179688 4.3515625 -5.71484375 5.015625 C-7.14533208 6.25782683 -8.59354411 7.48022095 -10.06640625 8.671875 C-19.99768164 16.8345671 -25.89470641 27.30865469 -28 40 C-28.99840527 52.3264651 -25.8045576 64.57837229 -18.12109375 74.40234375 C-16.45658924 76.31568328 -14.76480581 78.17924934 -13 80 C-16.74876206 80 -17.21936368 79.21302166 -19.8125 76.625 C-28.43863437 67.63348609 -32.41077893 58.07491795 -32.3125 45.6875 C-32.30512817 44.57556274 -32.30512817 44.57556274 -32.29760742 43.44116211 C-32.00617734 29.69313501 -26.7984196 18.23452583 -17.4140625 8.26953125 C-6.36213469 -2.12071156 -6.36213469 -2.12071156 0 0 Z " fill="#08A739" transform="translate(42,12)"/>
<path d="M0 0 C0.33 0 0.66 0 1 0 C1.02578125 0.85980469 1.0515625 1.71960938 1.078125 2.60546875 C1.68360121 15.2241433 4.75732601 25.43377547 10.92578125 36.44140625 C12.09381791 39.2234572 12.10635858 40.25027838 11 43 C11.70125 42.855625 12.4025 42.71125 13.125 42.5625 C17.11367986 43.16947302 18.16773419 45.1826299 20.59375 48.24609375 C23.60844404 52.00608715 26.26147657 53.34187175 31 54 C31 55.32 31 56.64 31 58 C27.17642246 58.39631242 25.49843491 58.3612376 22.33203125 56.06640625 C21.50058594 55.24011719 20.66914062 54.41382813 19.8125 53.5625 C15.70738946 49.5330597 13.93436327 48 8 48 C8.28875 47.030625 8.5775 46.06125 8.875 45.0625 C9.3979065 41.42394229 8.50328373 39.81224871 6.375 36.875 C-0.95647878 26.73426299 -3.42070539 16.30779514 -2 4 C-0.97265625 1.56640625 -0.97265625 1.56640625 0 0 Z " fill="#D60883" transform="translate(42,30)"/>
<path d="M0 0 C4.65311561 0.69796734 5.73164463 2.13577257 8.48828125 5.73828125 C11.34892885 9.87426401 12.04531414 11.95308603 12.0625 17 C12.07925781 18.13308594 12.09601563 19.26617187 12.11328125 20.43359375 C11.75 23.5625 11.75 23.5625 8.75 27.5625 C8.42 22.2825 8.09 17.0025 7.75 11.5625 C7.09 11.5625 6.43 11.5625 5.75 11.5625 C5.316875 10.77875 4.88375 9.995 4.4375 9.1875 C2.94474432 6.44260423 2.94474432 6.44260423 0.375 5.125 C-2.84611279 4.43476155 -4.36466961 5.0786158 -7.25 6.5625 C-5.41265556 2.62533335 -4.52090226 0.78246385 0 0 Z " fill="#D60883" transform="translate(55.25,23.4375)"/>
<path d="M0 0 C4 1 4 1 4 1 Z " fill="#D60883" transform="translate(63,11)"/>
<path d="M0 0 C3 1 3 1 3 1 Z " fill="#D60883" transform="translate(67,12)"/>
<path d="M0 0 C2 1 2 1 2 1 Z " fill="#D60883" transform="translate(52,88)"/>
<path d="M0 0 C2 1 2 1 2 1 Z " fill="#D60883" transform="translate(70,13)"/>
<path d="" fill="#D60883" transform="translate(0,0)"/>
</svg>
